<svg width="289" height="72" viewBox="0 0 289 72" fill="none" xmlns="http://www.w3.org/2000/svg">
<path fill-rule="evenodd" clip-rule="evenodd" d="M109.187 13.5397C108.493 14.2139 108.156 15.0666 108.156 16.0977C108.156 17.1486 108.513 18.0211 109.187 18.6754C109.901 19.3496 110.833 19.6867 112.003 19.6867C113.173 19.6867 114.105 19.3496 114.818 18.6754C115.532 18.0012 115.889 17.1486 115.889 16.0977C115.889 15.0666 115.532 14.2139 114.838 13.5397C114.144 12.8655 113.192 12.5284 112.022 12.5284C110.833 12.5284 109.881 12.8655 109.187 13.5397ZM108.572 48.637H115.493V22.78H108.572V48.637ZM122.273 25.9526C120.389 28.3717 119.438 31.5642 119.438 35.53H119.457V35.8274C119.457 39.8329 120.409 43.065 122.333 45.4841C124.256 47.9231 126.754 49.1327 129.868 49.1327C132.465 49.1327 134.567 48.2404 136.153 46.4359V47.8239C136.153 49.6284 135.638 51.0164 134.627 51.988C133.595 52.9597 132.168 53.4554 130.343 53.4554C127.885 53.4554 125.803 52.4837 124.077 50.5603L121.024 54.7641C121.956 55.9737 123.304 56.9453 125.109 57.6988C126.893 58.4523 128.737 58.829 130.641 58.829C133.139 58.829 135.321 58.3928 137.184 57.5203C139.048 56.6479 140.496 55.359 141.527 53.6933C142.558 52.0079 143.074 50.0448 143.074 47.7843V22.7998H136.808L136.53 25.2387C134.944 23.2955 132.743 22.3239 129.907 22.3239C126.695 22.3239 124.157 23.5334 122.273 25.9526ZM127.746 41.5381C126.814 40.2096 126.338 38.3655 126.338 36.0257C126.338 33.3488 126.814 31.3064 127.766 29.9778C128.717 28.6096 130.006 27.9355 131.672 27.9355C133.714 27.9355 135.202 28.7088 136.134 30.2951V41.1812C135.221 42.7477 133.714 43.5409 131.613 43.5409C129.967 43.5409 128.678 42.8667 127.746 41.5381ZM153.981 22.7803L154.2 25.7745C156.044 23.4744 158.522 22.3044 161.635 22.3044C164.372 22.3044 166.414 23.1174 167.743 24.7236C169.071 26.3297 169.765 28.729 169.805 31.9413V48.6374H162.904V32.1C162.904 30.6326 162.587 29.5817 161.953 28.9075C161.318 28.2531 160.247 27.916 158.78 27.916C156.837 27.916 155.389 28.7489 154.418 30.3947V48.6175H147.517V22.7803H153.981ZM175.276 13.5397C174.582 14.2139 174.245 15.0666 174.245 16.0977C174.245 17.1486 174.602 18.0211 175.276 18.6754C175.99 19.3496 176.922 19.6867 178.092 19.6867C179.262 19.6867 180.193 19.3496 180.907 18.6754C181.621 18.0012 181.978 17.1486 181.978 16.0977C181.978 15.0666 181.621 14.2139 180.927 13.5397C180.233 12.8655 179.281 12.5284 178.111 12.5284C176.922 12.5284 175.97 12.8655 175.276 13.5397ZM174.661 48.637H181.582V22.78H174.661V48.637ZM194.808 16.4547V22.7801H199.23V27.8365H194.808V40.7452C194.808 41.697 194.987 42.391 195.364 42.8074C195.721 43.2238 196.434 43.4221 197.466 43.4221C198.239 43.4221 198.913 43.3626 199.488 43.2635V48.4983C198.14 48.9147 196.732 49.113 195.304 49.113C190.466 49.113 187.987 46.6741 187.908 41.7763V27.8563H184.14V22.7999H187.908V16.4547H194.808ZM204.961 45.6234C207.341 47.9434 210.434 49.1133 214.221 49.1133C216.383 49.1133 218.346 48.6969 220.091 47.8641C221.855 47.0511 223.263 45.901 224.294 44.4337L220.904 40.6265C219.416 42.5499 217.334 43.5215 214.677 43.5215C212.952 43.5215 211.544 43.006 210.414 41.9947C209.284 40.9636 208.61 39.6152 208.392 37.9298H224.85V35.114C224.85 31.0293 223.818 27.8566 221.796 25.6358C219.773 23.3951 216.977 22.2847 213.448 22.2847C211.108 22.2847 209.006 22.8399 207.162 23.9503C205.318 25.0607 203.91 26.6471 202.899 28.6894C201.888 30.7318 201.392 33.0518 201.392 35.6494V36.3236C201.392 40.2101 202.582 43.3034 204.961 45.6234ZM210.117 29.2645C210.969 28.3325 212.08 27.8764 213.448 27.8764C214.895 27.8764 216.026 28.2929 216.819 29.1257C217.632 29.9783 218.028 31.1681 218.068 32.6949V33.2501H208.471C208.729 31.525 209.264 30.1964 210.117 29.2645Z" fill="white"/>
<path opacity="0.5" d="M72.4459 0.4864L54.8202 66.2992C54.7305 66.5979 54.372 66.6876 54.1629 66.4784L42.3626 54.6781L51.2054 21.6971C51.295 21.3983 51.0261 21.1295 50.7274 21.2191L17.7463 30.0618L6.00575 18.3213C5.79663 18.1122 5.88626 17.7537 6.185 17.664L71.9679 0.00841294C72.2667 -0.0513354 72.5355 0.217532 72.4459 0.4864Z" fill="#00B37E"/>
<path opacity="0.5" d="M42.3626 54.6786L37.8217 71.7068C37.7321 72.0056 37.3736 72.0952 37.1645 71.8861L0.538774 35.2902C0.329655 35.0811 0.419277 34.7226 0.718018 34.633L17.7463 30.0623L42.3626 54.6786Z" fill="#00B37E"/>
<path d="M51.2056 21.6969L42.3628 54.678L17.7466 30.0617L50.7276 21.2189C51.0263 21.1293 51.2952 21.3982 51.2056 21.6969Z" fill="#00B37E"/>
<path d="M244.813 35.4093V39.8852H233.099V35.4093H244.813ZM267.428 19.8185H273.318V40.5277C273.318 42.912 272.804 44.9179 271.776 46.5455C270.748 48.1588 269.349 49.3795 267.578 50.2076C265.808 51.0214 263.795 51.4283 261.539 51.4283C259.255 51.4283 257.22 51.0214 255.435 50.2076C253.651 49.3795 252.252 48.1588 251.238 46.5455C250.224 44.9179 249.717 42.912 249.717 40.5277V19.8185H255.607V40.5277C255.607 41.9839 255.85 43.1761 256.335 44.1041C256.82 45.0178 257.506 45.696 258.391 46.1386C259.276 46.5812 260.325 46.8025 261.539 46.8025C262.767 46.8025 263.816 46.5812 264.687 46.1386C265.572 45.696 266.25 45.0178 266.722 44.1041C267.193 43.1761 267.428 41.9839 267.428 40.5277V19.8185ZM285.182 19.8185V51H279.293V19.8185H285.182Z" fill="white"/>
</svg>
